<svg width="44" height="36" viewBox="0 0 44 36" fill="none" xmlns="http://www.w3.org/2000/svg">
<path d="M4 35.5C2.067 35.5 0.5 33.933 0.5 32L0.499997 4C0.499997 2.06701 2.067 0.500004 4 0.500003L43.5 0.5L43.5 35.5L4 35.5Z" fill="#E3E3E3"/>
<path d="M4 35.5C2.067 35.5 0.5 33.933 0.5 32L0.499997 4C0.499997 2.06701 2.067 0.500004 4 0.500003L43.5 0.5L43.5 35.5L4 35.5Z" stroke="#E3E3E3"/>
<path fill-rule="evenodd" clip-rule="evenodd" d="M12 11.9583C12 11.1529 12.6529 10.5 13.4583 10.5H30.5417C31.3471 10.5 32 11.1529 32 11.9583V24.0417C32 24.8471 31.3471 25.5 30.5417 25.5H13.4583C12.6529 25.5 12 24.8471 12 24.0417V11.9583ZM13.4583 11.75C13.3433 11.75 13.25 11.8433 13.25 11.9583V24.0417C13.25 24.1567 13.3433 24.25 13.4583 24.25H30.5417C30.6567 24.25 30.75 24.1567 30.75 24.0417V11.9583C30.75 11.8433 30.6567 11.75 30.5417 11.75H13.4583Z" fill="#003B44"/>
<path fill-rule="evenodd" clip-rule="evenodd" d="M16.1667 15.2917C16.1667 14.9465 16.4465 14.6667 16.7917 14.6667H26.375C26.7202 14.6667 27 14.9465 27 15.2917C27 15.6368 26.7202 15.9167 26.375 15.9167H16.7917C16.4465 15.9167 16.1667 15.6368 16.1667 15.2917Z" fill="#003B44"/>
<path fill-rule="evenodd" clip-rule="evenodd" d="M16.1667 18.625C16.1667 18.2798 16.4465 18 16.7917 18H21.375C21.7202 18 22 18.2798 22 18.625C22 18.9702 21.7202 19.25 21.375 19.25H16.7917C16.4465 19.25 16.1667 18.9702 16.1667 18.625Z" fill="#003B44"/>
</svg>
