<svg width="44" height="36" viewBox="0 0 44 36" fill="none" xmlns="http://www.w3.org/2000/svg">
<mask id="path-1-inside-1_3_32363" fill="white">
<path d="M44 36L4 36C1.79086 36 -1.56562e-07 34.2091 -3.49691e-07 32L-2.79753e-06 4C-2.99066e-06 1.79086 1.79086 3.69004e-06 4 3.49691e-06L44 0L44 36Z"/>
</mask>
<path d="M44 37L4 37C1.23858 37 -1 34.7614 -1 32L1 32C1 33.6569 2.34315 35 4 35L44 35L44 37ZM-1 4C-1 1.23858 1.23857 -0.999996 4 -0.999997L44 -1L44 1L4 1C2.34314 1 0.999997 2.34315 0.999997 4L-1 4ZM44 0L44 36L44 0ZM4 37C1.23858 37 -1 34.7614 -1 32L-1 4C-1 1.23858 1.23857 -0.999996 4 -0.999997L4 1C2.34314 1 0.999997 2.34315 0.999997 4L1 32C1 33.6569 2.34315 35 4 35L4 37Z" fill="#E3E3E3" mask="url(#path-1-inside-1_3_32363)"/>
<path fill-rule="evenodd" clip-rule="evenodd" d="M12 11.9583C12 11.1529 12.6529 10.5 13.4583 10.5H30.5417C31.3471 10.5 32 11.1529 32 11.9583V24.0417C32 24.8471 31.3471 25.5 30.5417 25.5H13.4583C12.6529 25.5 12 24.8471 12 24.0417V11.9583ZM13.4583 11.75C13.3433 11.75 13.25 11.8433 13.25 11.9583V24.0417C13.25 24.1567 13.3433 24.25 13.4583 24.25H30.5417C30.6567 24.25 30.75 24.1567 30.75 24.0417V11.9583C30.75 11.8433 30.6567 11.75 30.5417 11.75H13.4583Z" fill="#B7B7B7"/>
<path fill-rule="evenodd" clip-rule="evenodd" d="M16.1667 15.2917C16.1667 14.9465 16.4465 14.6667 16.7917 14.6667H26.375C26.7202 14.6667 27 14.9465 27 15.2917C27 15.6368 26.7202 15.9167 26.375 15.9167H16.7917C16.4465 15.9167 16.1667 15.6368 16.1667 15.2917Z" fill="#B7B7B7"/>
<path fill-rule="evenodd" clip-rule="evenodd" d="M16.1667 18.625C16.1667 18.2798 16.4465 18 16.7917 18H21.375C21.7202 18 22 18.2798 22 18.625C22 18.9702 21.7202 19.25 21.375 19.25H16.7917C16.4465 19.25 16.1667 18.9702 16.1667 18.625Z" fill="#B7B7B7"/>
</svg>
