<svg width="44" height="36" viewBox="0 0 44 36" fill="none" xmlns="http://www.w3.org/2000/svg">
<path d="M40 35.5L0.5 35.5L0.499997 0.500004L40 0.5C41.933 0.5 43.5 2.067 43.5 4L43.5 32C43.5 33.933 41.933 35.5 40 35.5Z" fill="#E3E3E3"/>
<path d="M40 35.5L0.5 35.5L0.499997 0.500004L40 0.5C41.933 0.5 43.5 2.067 43.5 4L43.5 32C43.5 33.933 41.933 35.5 40 35.5Z" stroke="#E3E3E3"/>
<path fill-rule="evenodd" clip-rule="evenodd" d="M15.3333 13.8334C15.7936 13.8334 16.1667 13.4603 16.1667 13C16.1667 12.5398 15.7936 12.1667 15.3333 12.1667C14.8731 12.1667 14.5 12.5398 14.5 13C14.5 13.4603 14.8731 13.8334 15.3333 13.8334ZM19.2917 12.5834C18.9465 12.5834 18.6667 12.8632 18.6667 13.2084C18.6667 13.5535 18.9465 13.8334 19.2917 13.8334H28.875C29.2202 13.8334 29.5 13.5535 29.5 13.2084C29.5 12.8632 29.2202 12.5834 28.875 12.5834H19.2917ZM19.2917 17.5834C18.9465 17.5834 18.6667 17.8632 18.6667 18.2084C18.6667 18.5535 18.9465 18.8334 19.2917 18.8334H28.875C29.2202 18.8334 29.5 18.5535 29.5 18.2084C29.5 17.8632 29.2202 17.5834 28.875 17.5834H19.2917ZM19.2917 22.5834C18.9465 22.5834 18.6667 22.8632 18.6667 23.2084C18.6667 23.5535 18.9465 23.8334 19.2917 23.8334H28.875C29.2202 23.8334 29.5 23.5535 29.5 23.2084C29.5 22.8632 29.2202 22.5834 28.875 22.5834H19.2917ZM16.1667 18C16.1667 18.4603 15.7936 18.8334 15.3333 18.8334C14.8731 18.8334 14.5 18.4603 14.5 18C14.5 17.5398 14.8731 17.1667 15.3333 17.1667C15.7936 17.1667 16.1667 17.5398 16.1667 18ZM15.3333 23.8334C15.7936 23.8334 16.1667 23.4603 16.1667 23C16.1667 22.5398 15.7936 22.1667 15.3333 22.1667C14.8731 22.1667 14.5 22.5398 14.5 23C14.5 23.4603 14.8731 23.8334 15.3333 23.8334Z" fill="#003B44"/>
</svg>
