<svg width="44" height="36" viewBox="0 0 44 36" fill="none" xmlns="http://www.w3.org/2000/svg">
<mask id="path-1-inside-1_5_196" fill="white">
<path d="M44 32C44 34.2091 42.2091 36 40 36L0 36L-3.14722e-06 3.8466e-06L40 3.49691e-07C42.2091 1.56562e-07 44 1.79086 44 4L44 32Z"/>
</mask>
<path d="M45 32C45 34.7614 42.7614 37 40 37L-1 37L1 35L40 35C41.6569 35 43 33.6569 43 32L45 32ZM-1 -0.999996L40 -1C42.7614 -1 45 1.23857 45 4L43 4C43 2.34315 41.6569 1 40 1L0.999997 1L-1 -0.999996ZM40 -1C42.7614 -1 45 1.23857 45 4L45 32C45 34.7614 42.7614 37 40 37L40 35C41.6569 35 43 33.6569 43 32L43 4C43 2.34315 41.6569 1 40 1L40 -1ZM-1 37L-1 -0.999996L0.999997 1L1 35L-1 37Z" fill="#E3E3E3" mask="url(#path-1-inside-1_5_196)"/>
<path fill-rule="evenodd" clip-rule="evenodd" d="M15.3333 13.8333C15.7936 13.8333 16.1667 13.4602 16.1667 13C16.1667 12.5398 15.7936 12.1667 15.3333 12.1667C14.8731 12.1667 14.5 12.5398 14.5 13C14.5 13.4602 14.8731 13.8333 15.3333 13.8333ZM19.2917 12.5833C18.9465 12.5833 18.6667 12.8631 18.6667 13.2083C18.6667 13.5535 18.9465 13.8333 19.2917 13.8333H28.875C29.2202 13.8333 29.5 13.5535 29.5 13.2083C29.5 12.8631 29.2202 12.5833 28.875 12.5833H19.2917ZM19.2917 17.5833C18.9465 17.5833 18.6667 17.8632 18.6667 18.2083C18.6667 18.5535 18.9465 18.8333 19.2917 18.8333H28.875C29.2202 18.8333 29.5 18.5535 29.5 18.2083C29.5 17.8632 29.2202 17.5833 28.875 17.5833H19.2917ZM19.2917 22.5833C18.9465 22.5833 18.6667 22.8632 18.6667 23.2083C18.6667 23.5535 18.9465 23.8333 19.2917 23.8333H28.875C29.2202 23.8333 29.5 23.5535 29.5 23.2083C29.5 22.8632 29.2202 22.5833 28.875 22.5833H19.2917ZM16.1667 18C16.1667 18.4602 15.7936 18.8333 15.3333 18.8333C14.8731 18.8333 14.5 18.4602 14.5 18C14.5 17.5397 14.8731 17.1667 15.3333 17.1667C15.7936 17.1667 16.1667 17.5397 16.1667 18ZM15.3333 23.8333C15.7936 23.8333 16.1667 23.4602 16.1667 23C16.1667 22.5397 15.7936 22.1667 15.3333 22.1667C14.8731 22.1667 14.5 22.5397 14.5 23C14.5 23.4602 14.8731 23.8333 15.3333 23.8333Z" fill="#B7B7B7"/>
</svg>
