<svg width="36" height="36" viewBox="0 0 36 36" fill="none" xmlns="http://www.w3.org/2000/svg">
<rect width="36" height="36" rx="4" fill="white"/>
<path fill-rule="evenodd" clip-rule="evenodd" d="M15.2916 24.0417C15.2916 25.5374 16.5041 26.75 17.9999 26.75C19.4957 26.75 20.7083 25.5374 20.7083 24.0417C20.7083 22.761 19.8194 21.688 18.6249 21.4058V18.4167H20.7083C22.4341 18.4167 23.8333 17.0176 23.8333 15.2917V14.5942C25.0277 14.312 25.9166 13.239 25.9166 11.9583C25.9166 10.4626 24.704 9.25 23.2083 9.25C21.7125 9.25 20.4999 10.4626 20.4999 11.9583C20.4999 13.239 21.3888 14.312 22.5833 14.5942V15.2917C22.5833 16.3272 21.7438 17.1667 20.7083 17.1667H15.2916C14.2561 17.1667 13.4166 16.3272 13.4166 15.2917V14.5942C14.611 14.312 15.4999 13.239 15.4999 11.9583C15.4999 10.4626 14.2874 9.25 12.7916 9.25C11.2958 9.25 10.0833 10.4626 10.0833 11.9583C10.0833 13.239 10.9721 14.312 12.1666 14.5942V15.2917C12.1666 17.0176 13.5657 18.4167 15.2916 18.4167H17.3749V21.4058C16.1805 21.688 15.2916 22.761 15.2916 24.0417ZM17.9999 25.5C17.1945 25.5 16.5416 24.8471 16.5416 24.0417C16.5416 23.2363 17.1945 22.5833 17.9999 22.5833C18.8053 22.5833 19.4583 23.2363 19.4583 24.0417C19.4583 24.8471 18.8053 25.5 17.9999 25.5ZM12.7916 13.4167C11.9862 13.4167 11.3333 12.7637 11.3333 11.9583C11.3333 11.1529 11.9862 10.5 12.7916 10.5C13.597 10.5 14.2499 11.1529 14.2499 11.9583C14.2499 12.7637 13.597 13.4167 12.7916 13.4167ZM21.7499 11.9583C21.7499 12.7637 22.4028 13.4167 23.2083 13.4167C24.0137 13.4167 24.6666 12.7637 24.6666 11.9583C24.6666 11.1529 24.0137 10.5 23.2083 10.5C22.4028 10.5 21.7499 11.1529 21.7499 11.9583Z" fill="#003B44"/>
</svg>
