<svg width="36" height="36" viewBox="0 0 36 36" fill="none" xmlns="http://www.w3.org/2000/svg">
<rect width="36" height="36" rx="4" fill="white"/>
<path fill-rule="evenodd" clip-rule="evenodd" d="M18 8.20834C18.2379 8.20834 18.4552 8.34341 18.5605 8.55674L21.1091 13.7208L26.8079 14.5489C27.0433 14.5831 27.2389 14.748 27.3124 14.9742C27.386 15.2005 27.3247 15.4489 27.1543 15.6149L23.0306 19.6345L24.0041 25.3103C24.0443 25.5448 23.9479 25.7818 23.7554 25.9216C23.5629 26.0615 23.3078 26.0799 23.0972 25.9692L18 23.2895L12.9028 25.9692C12.6923 26.0799 12.4371 26.0615 12.2446 25.9216C12.0522 25.7818 11.9558 25.5448 11.996 25.3103L12.9695 19.6345L8.84574 15.6149C8.67539 15.4489 8.61407 15.2005 8.68759 14.9742C8.76111 14.748 8.9567 14.5831 9.19213 14.5489L14.891 13.7208L17.4396 8.55674C17.5448 8.34341 17.7621 8.20834 18 8.20834ZM18 10.2456L15.8665 14.5686C15.7754 14.7531 15.5994 14.8809 15.3959 14.9105L10.6251 15.6038L14.0773 18.9688C14.2246 19.1124 14.2918 19.3192 14.257 19.522L13.4421 24.2735L17.7092 22.0301C17.8913 21.9344 18.1088 21.9344 18.2909 22.0301L22.558 24.2735L21.743 19.522C21.7082 19.3192 21.7755 19.1124 21.9228 18.9688L25.3749 15.6038L20.6042 14.9105C20.4006 14.8809 20.2246 14.7531 20.1336 14.5686L18 10.2456Z" fill="#003B44"/>
</svg>
